<svg xmlns="http://www.w3.org/2000/svg" width="70.627" height="70.627" viewBox="0 0 70.627 70.627">
  <g id="Group_15" data-name="Group 15" transform="translate(-761 -2785)">
    <g id="favorite_white_48dp" transform="translate(762.754 2787.63)" opacity="0.6">
      <path id="Path_1" data-name="Path 1" d="M0,0H66.1V66.1H0Z" fill="none"/>
      <path id="Path_2" data-name="Path 2" d="M29.54,53.536,25.547,49.9C11.364,37.04,2,28.557,2,18.147A15,15,0,0,1,17.147,3,16.492,16.492,0,0,1,29.54,8.756,16.492,16.492,0,0,1,41.933,3,15,15,0,0,1,57.081,18.147c0,10.41-9.364,18.893-23.547,31.782Z" transform="translate(3.508 5.262)" fill="#fff"/>
    </g>
    <g id="favorite_border_black_48dp" transform="translate(761 2785)" opacity="0.98">
      <path id="Path_3" data-name="Path 3" d="M0,0H70.627V70.627H0Z" fill="none"/>
      <path id="Path_4" data-name="Path 4" d="M44.671,3A17.623,17.623,0,0,0,31.428,9.15,17.623,17.623,0,0,0,18.185,3,16.028,16.028,0,0,0,2,19.185c0,11.124,10.006,20.188,25.161,33.96L31.428,57,35.7,53.116C50.851,39.373,60.856,30.309,60.856,19.185A16.028,16.028,0,0,0,44.671,3ZM31.722,48.761l-.294.294-.294-.294C17.126,36.077,7.886,27.69,7.886,19.185a10.058,10.058,0,0,1,10.3-10.3,11.5,11.5,0,0,1,10.506,6.945h5.5A11.432,11.432,0,0,1,44.671,8.886a10.058,10.058,0,0,1,10.3,10.3C54.971,27.69,45.73,36.077,31.722,48.761Z" transform="translate(3.886 5.828)"/>
    </g>
  </g>
</svg>
